<?xml version="1.0" standalone="no"?>
<!DOCTYPE svg PUBLIC "-//W3C//DTD SVG 20010904//EN"
 "http://www.w3.org/TR/2001/REC-SVG-20010904/DTD/svg10.dtd">
<svg version="1.0" xmlns="http://www.w3.org/2000/svg"
 width="500.000000pt" height="500.000000pt" viewBox="0 0 500.000000 500.000000"
 preserveAspectRatio="xMidYMid meet">

<g transform="translate(0.000000,500.000000) scale(0.100000,-0.100000)"
fill="#000000" stroke="none">
<path d="M1260 4639 c-41 -23 -76 -71 -90 -120 -6 -19 -10 -176 -10 -351 l0
-318 -322 0 c-181 0 -339 -4 -358 -10 -40 -11 -104 -71 -119 -113 -37 -98 25
-218 127 -247 22 -6 167 -10 354 -10 l317 0 3 -332 c3 -379 4 -383 86 -445 37
-28 52 -33 101 -33 73 0 140 39 171 99 19 38 20 57 20 376 l0 335 321 0 c357
0 381 3 440 60 96 92 55 274 -72 310 -19 6 -177 10 -361 10 l-328 0 0 334 c0
212 -4 345 -11 363 -14 38 -57 83 -96 99 -48 21 -131 17 -173 -7z"/>
<path d="M2490 4276 l0 -253 83 -7 c416 -35 813 -253 1056 -581 162 -218 251
-432 286 -683 65 -482 -91 -933 -441 -1272 -186 -180 -407 -301 -684 -376 -54
-14 -250 -34 -336 -34 -254 0 -536 76 -739 198 -169 103 -325 240 -436 387
-167 221 -276 512 -296 794 l-6 91 -253 0 -254 0 0 -42 c0 -160 47 -433 104
-610 61 -188 120 -307 241 -493 304 -462 811 -787 1365 -871 162 -25 445 -25
610 0 708 107 1314 592 1573 1261 93 241 131 452 131 730 0 225 -17 355 -74
549 -64 219 -101 306 -213 491 -279 464 -754 807 -1277 921 -123 27 -314 53
-392 54 l-48 0 0 -254z"/>
</g>
</svg>
