<svg xmlns="http://www.w3.org/2000/svg" width="666.667" height="666.667" version="1.0" viewBox="0 0 500 500">
    <path d="M126 36.1c-4.1 2.3-7.6 7.1-9 12-.6 1.9-1 17.6-1 35.1V115H83.8c-18.1 0-33.9.4-35.8 1-4 1.1-10.4 7.1-11.9 11.3-3.7 9.8 2.5 21.8 12.7 24.7 2.2.6 16.7 1 35.4 1h31.7l.3 33.2c.3 37.9.4 38.3 8.6 44.5 3.7 2.8 5.2 3.3 10.1 3.3 7.3 0 14-3.9 17.1-9.9 1.9-3.8 2-5.7 2-37.6V153h32.1c35.7 0 38.1-.3 44-6 9.6-9.2 5.5-27.4-7.2-31-1.9-.6-17.7-1-36.1-1H154V81.6c0-21.2-.4-34.5-1.1-36.3-1.4-3.8-5.7-8.3-9.6-9.9-4.8-2.1-13.1-1.7-17.3.7"/>
    <path d="M249 72.4v25.3l8.3.7c41.6 3.5 81.3 25.3 105.6 58.1 16.2 21.8 25.1 43.2 28.6 68.3 6.5 48.2-9.1 93.3-44.1 127.2-18.6 18-40.7 30.1-68.4 37.6-5.4 1.4-25 3.4-33.6 3.4-25.4 0-53.6-7.6-73.9-19.8-16.9-10.3-32.5-24-43.6-38.7-16.7-22.1-27.6-51.2-29.6-79.4l-.6-9.1H47v4.2c0 16 4.7 43.3 10.4 61 6.1 18.8 12 30.7 24.1 49.3 30.4 46.2 81.1 78.7 136.5 87.1 16.2 2.5 44.5 2.5 61 0 70.8-10.7 131.4-59.2 157.3-126.1 9.3-24.1 13.1-45.2 13.1-73 0-22.5-1.7-35.5-7.4-54.9-6.4-21.9-10.1-30.6-21.3-49.1-27.9-46.4-75.4-80.7-127.7-92.1-12.3-2.7-31.4-5.3-39.2-5.4H249z"/>
</svg>
