<svg width="24" height="24" viewBox="0 0 24 24" fill="none" xmlns="http://www.w3.org/2000/svg">
<path d="M22.002 12C22.002 13.9778 21.4155 15.9112 20.3167 17.5557C19.2179 19.2002 17.6561 20.4819 15.8288 21.2388C14.0016 21.9957 11.9909 22.1937 10.0511 21.8079C8.1113 21.422 6.32947 20.4696 4.93095 19.0711C3.53242 17.6725 2.58001 15.8907 2.19416 13.9509C1.80831 12.0111 2.00634 10.0004 2.76322 8.17317C3.5201 6.3459 4.80182 4.78412 6.44631 3.6853C8.0908 2.58649 10.0242 2 12.002 2L12.002 3.99099C10.418 3.99099 8.86952 4.46071 7.55245 5.34076C6.23537 6.2208 5.20884 7.47163 4.60266 8.93509C3.99648 10.3985 3.83787 12.0089 4.1469 13.5625C4.45593 15.1161 5.21871 16.5431 6.33879 17.6632C7.45887 18.7833 8.88594 19.5461 10.4395 19.8551C11.9931 20.1641 13.6035 20.0055 15.0669 19.3994C16.5304 18.7932 17.7812 17.7666 18.6613 16.4496C19.5413 15.1325 20.011 13.584 20.011 12H22.002Z" fill="black"/>
<path d="M17.2 1H18.8V4.2H22V5.8H18.8V9H17.2V5.8H14V4.2H17.2V1Z" fill="black"/>
<path d="M12.7692 7H9V17H11.1538V13.6667H12.7692C14.5515 13.6667 16 12.1722 16 10.3333C16 8.49444 14.5515 7 12.7692 7ZM12.8769 11.4444H11.1538V9.22222H12.8769C13.4692 9.22222 13.9538 9.72222 13.9538 10.3333C13.9538 10.9444 13.4692 11.4444 12.8769 11.4444Z" fill="black"/>
</svg>
