<svg width="25" height="26" viewBox="0 0 25 26" fill="none" xmlns="http://www.w3.org/2000/svg">
<path d="M4.62764 4.6832V2.84141V-1.04904e-05H6.82853V2.74874V4.6832H8.72824H11.4585V6.88408H8.68769H6.82853V8.82434L6.82117 11.5754H4.63923V8.80696L4.62185 6.88408H2.78585H0V4.6832H2.78585H4.62764Z" fill="black"/>
<path d="M13.0876 3.46063V4.92596L13.5683 4.9665C15.9777 5.16921 18.277 6.43182 19.6844 8.33153C20.6227 9.59415 21.1382 10.8336 21.3409 12.2873C21.7174 15.079 20.8138 17.6911 18.7867 19.6545C17.7094 20.697 16.4294 21.3978 14.8251 21.8322C14.5124 21.9133 13.3772 22.0291 12.8791 22.0291C11.408 22.0291 9.77467 21.589 8.59894 20.8824C7.62012 20.2858 6.7166 19.4923 6.07372 18.6409C5.10649 17.3609 4.47518 15.6755 4.35934 14.0422L4.32459 13.5152H2.85927H1.38815V13.7584C1.38815 14.6851 1.66037 16.2663 1.9905 17.2914C2.3438 18.3803 2.68552 19.0695 3.38632 20.1468C5.14703 22.8226 8.08347 24.7049 11.2921 25.1915C12.2304 25.3362 13.8695 25.3362 14.8251 25.1915C18.9257 24.5717 22.4355 21.7627 23.9356 17.888C24.4742 16.4922 24.6943 15.2701 24.6943 13.66C24.6943 12.3568 24.5959 11.6039 24.2657 10.4803C23.8951 9.21189 23.6808 8.708 23.0321 7.63652C21.4162 4.94912 18.6651 2.96254 15.636 2.30227C14.9236 2.14589 13.8173 1.99531 13.3656 1.98952H13.0876V3.46063Z" fill="black"/>
<path d="M14 8H12V10H14V8Z" fill="black"/>
<path d="M14 12H12V18H14V12Z" fill="black"/>
</svg>
