<svg xmlns="http://www.w3.org/2000/svg" width="25" height="26" fill="none">
    <path fill="#000" d="M4.628 4.683V0h2.2v4.683h4.63v2.201h-4.63v1.94l-.007 2.751H4.64V8.807l-.017-1.923H0v-2.2h4.628"/>
    <path fill="#000" d="M13.088 3.46v1.466l.48.04c2.41.203 4.709 1.466 6.116 3.366.939 1.262 1.454 2.502 1.657 3.955.376 2.792-.527 5.404-2.554 7.367-1.078 1.043-2.358 1.744-3.962 2.178-.313.081-1.448.197-1.946.197-1.471 0-3.104-.44-4.28-1.147-.979-.596-1.882-1.39-2.525-2.241-.968-1.28-1.599-2.965-1.715-4.599l-.034-.527H1.389v.243c0 .927.271 2.508.601 3.533.354 1.09.696 1.779 1.396 2.856 1.761 2.676 4.697 4.558 7.906 5.045.938.144 2.578.144 3.533 0a11.69 11.69 0 0 0 9.11-7.304c.54-1.396.76-2.618.76-4.228 0-1.303-.1-2.056-.43-3.18-.37-1.268-.584-1.772-1.233-2.843-1.616-2.688-4.367-4.674-7.396-5.335-.712-.156-1.819-.307-2.27-.312h-.278z"/>
    <path fill="#000" d="M14 8h-2v2h2zm0 4h-2v6h2z"/>
</svg>
