<svg xmlns="http://www.w3.org/2000/svg" width="667" height="667" fill="none">
    <path fill="#000" d="M350.072 431.268c12.267-2.4 18-4.267 27.867-9.2 25.2-12.534 44.133-35.867 51.6-63.467 4-14.533 4-37.067 0-51.2-8-28.133-26.267-50.533-52.133-63.6-26.267-13.2-61.334-13.333-87.334-.267-35.866 17.867-56.4 51.2-56 90.934.534 38.133 20.8 70.666 55.334 88 17.2 8.8 42 12.4 60.666 8.8m-42.4-16.267c-5.733-1.867-14-5.467-18.4-8-10.133-6.133-23.733-19.733-29.866-29.867-5.334-9.2-10.667-25.2-12.134-36.266l-.8-7.734h173.6l-.8 7.734c-1.466 11.066-6.8 27.066-12.133 36.266-6.133 10.134-19.733 23.734-29.733 29.734-8.267 4.933-21.6 9.733-31.867 11.6-9.467 1.733-26.267.133-37.867-3.467"/>
</svg>
