<svg width="667" height="667" viewBox="0 0 667 667" fill="none" xmlns="http://www.w3.org/2000/svg">
<path d="M350.072 431.268C362.339 428.868 368.072 427.001 377.939 422.068C403.139 409.534 422.072 386.201 429.539 358.601C433.539 344.068 433.539 321.534 429.539 307.401C421.539 279.268 403.272 256.868 377.406 243.801C351.139 230.601 316.072 230.468 290.072 243.534C254.206 261.401 233.672 294.734 234.072 334.468C234.606 372.601 254.872 405.134 289.406 422.468C306.606 431.268 331.406 434.868 350.072 431.268ZM307.672 415.001C301.939 413.134 293.672 409.534 289.272 407.001C279.139 400.868 265.539 387.268 259.406 377.134C254.072 367.934 248.739 351.934 247.272 340.868L246.472 333.134H333.272H420.072L419.272 340.868C417.806 351.934 412.472 367.934 407.139 377.134C401.006 387.268 387.406 400.868 377.406 406.868C369.139 411.801 355.806 416.601 345.539 418.468C336.072 420.201 319.272 418.601 307.672 415.001Z" fill="black"/>
</svg>
