<?xml version="1.0" standalone="no"?>
<!DOCTYPE svg PUBLIC "-//W3C//DTD SVG 20010904//EN"
 "http://www.w3.org/TR/2001/REC-SVG-20010904/DTD/svg10.dtd">
<svg version="1.0" xmlns="http://www.w3.org/2000/svg"
 width="500.000000pt" height="500.000000pt" viewBox="0 0 500.000000 500.000000"
 preserveAspectRatio="xMidYMid meet">

<g transform="translate(0.000000,500.000000) scale(0.100000,-0.100000)"
fill="#000000" stroke="none">
<path d="M2374 3236 c-92 -18 -135 -32 -209 -69 -189 -94 -331 -269 -387 -476
-30 -109 -30 -278 0 -384 60 -211 197 -379 391 -477 197 -99 460 -100 655 -2
269 134 423 384 420 682 -4 286 -156 530 -415 660 -129 66 -315 93 -455 66z
m318 -122 c43 -14 105 -41 138 -60 76 -46 178 -148 224 -224 40 -69 80 -189
91 -272 l6 -58 -651 0 -651 0 6 58 c11 83 51 203 91 272 46 76 148 178 223
223 62 37 162 73 239 87 71 13 197 1 284 -26z"/>
</g>
</svg>
