<svg xmlns="http://www.w3.org/2000/svg" width="666.667" height="666.667" version="1.0" viewBox="0 0 500 500">
    <path d="M237.4 176.4c-9.2 1.8-13.5 3.2-20.9 6.9-18.9 9.4-33.1 26.9-38.7 47.6-3 10.9-3 27.8 0 38.4 6 21.1 19.7 37.9 39.1 47.7 19.7 9.9 46 10 65.5.2 26.9-13.4 42.3-38.4 42-68.2-.4-28.6-15.6-53-41.5-66-12.9-6.6-31.5-9.3-45.5-6.6m31.8 12.2c4.3 1.4 10.5 4.1 13.8 6 7.6 4.6 17.8 14.8 22.4 22.4 4 6.9 8 18.9 9.1 27.2l.6 5.8H184.9l.6-5.8c1.1-8.3 5.1-20.3 9.1-27.2 4.6-7.6 14.8-17.8 22.3-22.3 6.2-3.7 16.2-7.3 23.9-8.7 7.1-1.3 19.7-.1 28.4 2.6"/>
</svg>
