<svg width="100" height="100" viewBox="0 0 100 100" fill="none" xmlns="http://www.w3.org/2000/svg">
<g clip-path="url(#clip0_364_88)">
<path d="M50 100C56.5661 100 63.0679 98.7067 69.1342 96.194C75.2005 93.6812 80.7124 89.9983 85.3553 85.3553C89.9983 80.7124 93.6812 75.2005 96.194 69.1342C98.7067 63.0679 100 56.5661 100 50C100 43.4339 98.7067 36.9321 96.194 30.8658C93.6812 24.7995 89.9983 19.2876 85.3553 14.6447C80.7124 10.0017 75.2004 6.31876 69.1342 3.80602C63.0679 1.29329 56.5661 0 50 0L50 50L50 100Z" fill="black"/>
</g>
<defs>
<clipPath id="clip0_364_88">
<rect width="100" height="100" fill="white" transform="matrix(-1 0 0 -1 100 100)"/>
</clipPath>
</defs>
</svg>
