<svg width="50" height="100" viewBox="0 0 50 100" fill="none" xmlns="http://www.w3.org/2000/svg">
<g clip-path="url(#clip0_364_88)">
<path d="M-5.96244e-07 100C6.56609 100 13.0679 98.7067 19.1342 96.194C25.2005 93.6812 30.7124 89.9983 35.3553 85.3553C39.9983 80.7124 43.6812 75.2005 46.194 69.1342C48.7067 63.0679 50 56.5661 50 50C50 43.4339 48.7067 36.9321 46.194 30.8658C43.6812 24.7995 39.9983 19.2876 35.3553 14.6447C30.7124 10.0017 25.2004 6.31876 19.1342 3.80602C13.0679 1.29329 6.56609 -4.95726e-07 -3.77489e-06 0L0 50L-5.96244e-07 100Z" fill="black"/>
</g>
<defs>
<clipPath id="clip0_364_88">
<rect width="50" height="100" fill="white" transform="matrix(-1 0 0 -1 50 100)"/>
</clipPath>
</defs>
</svg>
