<svg width="50" height="100" viewBox="0 0 50 100" fill="none" xmlns="http://www.w3.org/2000/svg">
<g clip-path="url(#clip0_364_84)">
<path d="M50 0C43.4339 -7.82999e-08 36.9321 1.29329 30.8658 3.80602C24.7995 6.31876 19.2876 10.0017 14.6447 14.6447C10.0017 19.2876 6.31876 24.7995 3.80602 30.8658C1.29329 36.9321 -2.08713e-07 43.4339 0 50C2.08713e-07 56.5661 1.29329 63.0679 3.80602 69.1342C6.31876 75.2005 10.0017 80.7124 14.6447 85.3553C19.2876 89.9983 24.7996 93.6812 30.8658 96.194C36.9321 98.7067 43.4339 100 50 100L50 50L50 0Z" fill="black"/>
</g>
<defs>
<clipPath id="clip0_364_84">
<rect width="50" height="100" fill="white"/>
</clipPath>
</defs>
</svg>
