<svg width="667" height="667" viewBox="0 0 667 667" fill="none" xmlns="http://www.w3.org/2000/svg">
<path d="M350.072 431.265C362.339 428.865 368.072 426.999 377.939 422.065C403.139 409.532 422.072 386.199 429.539 358.599C433.539 344.065 433.539 321.532 429.539 307.399C421.539 279.265 403.272 256.865 377.406 243.799C351.139 230.599 316.072 230.465 290.072 243.532C254.206 261.399 233.672 294.732 234.072 334.465C234.606 372.865 254.739 404.999 289.539 422.599C306.606 431.265 331.406 434.865 350.072 431.265ZM247.406 325.532C248.606 314.465 253.939 298.332 259.406 289.132C262.072 284.732 268.072 277.399 272.739 272.599C306.739 238.599 359.806 238.599 393.806 272.599C398.472 277.399 404.472 284.732 407.139 289.132C412.606 298.332 417.939 314.465 419.139 325.532L419.939 333.132H333.272H246.606L247.406 325.532Z" fill="black"/>
</svg>
