<?xml version="1.0" standalone="no"?>
<!DOCTYPE svg PUBLIC "-//W3C//DTD SVG 20010904//EN"
 "http://www.w3.org/TR/2001/REC-SVG-20010904/DTD/svg10.dtd">
<svg version="1.0" xmlns="http://www.w3.org/2000/svg"
 width="500.000000pt" height="500.000000pt" viewBox="0 0 500.000000 500.000000"
 preserveAspectRatio="xMidYMid meet">

<g transform="translate(0.000000,500.000000) scale(0.100000,-0.100000)"
fill="#000000" stroke="none">
<path d="M2374 3236 c-92 -18 -135 -32 -209 -69 -189 -94 -331 -269 -387 -476
-30 -109 -30 -278 0 -384 60 -211 197 -379 391 -477 197 -99 460 -100 655 -2
269 134 423 384 420 682 -4 288 -155 529 -416 661 -128 65 -314 92 -454 65z
m770 -793 c-9 -83 -49 -204 -90 -273 -20 -33 -65 -88 -100 -124 -255 -255
-653 -255 -908 0 -35 36 -80 91 -100 124 -41 69 -81 190 -90 273 l-6 57 650 0
650 0 -6 -57z"/>
</g>
</svg>
