<svg xmlns="http://www.w3.org/2000/svg" width="667" height="667" fill="none">
    <path fill="#000" d="M350.072 431.265c12.267-2.4 18-4.266 27.867-9.2 25.2-12.533 44.133-35.866 51.6-63.466 4-14.534 4-37.067 0-51.2-8-28.134-26.267-50.534-52.133-63.6-26.267-13.2-61.334-13.334-87.334-.267-35.866 17.867-56.4 51.2-56 90.933.534 38.4 20.667 70.534 55.467 88.134 17.067 8.666 41.867 12.266 60.533 8.666M247.406 325.532c1.2-11.067 6.533-27.2 12-36.4 2.666-4.4 8.666-11.733 13.333-16.533 34-34 87.067-34 121.067 0 4.666 4.8 10.666 12.133 13.333 16.533 5.467 9.2 10.8 25.333 12 36.4l.8 7.6H246.606z"/>
</svg>
