<svg width="24" height="24" viewBox="0 0 24 24" fill="none" xmlns="http://www.w3.org/2000/svg">
<path fill-rule="evenodd" clip-rule="evenodd" d="M15.4199 2.59934C14.3535 2.21153 13.2025 2 12.002 2C6.47917 2 2.00201 6.47715 2.00201 12C2.00201 17.5228 6.47917 22 12.002 22C17.5249 22 22.002 17.5228 22.002 12C22.002 10.7986 21.7902 9.64669 21.4018 8.57958C20.8241 8.84933 20.1796 9 19.5 9C17.0147 9 15 6.98528 15 4.5C15 3.8208 15.1505 3.17674 15.4199 2.59934ZM12.7692 7H9V17H11.1538V13.6667H12.7692C14.5515 13.6667 16 12.1722 16 10.3333C16 8.49444 14.5515 7 12.7692 7ZM12.8769 11.4444H11.1538V9.22222H12.8769C13.4692 9.22222 13.9538 9.72222 13.9538 10.3333C13.9538 10.9444 13.4692 11.4444 12.8769 11.4444Z" fill="black"/>
<path d="M16.5 4.5L17.8595 3.14424L19.3512 4.64002L22.0702 1.92852L23.426 3.28803L20.707 5.99954L19.3474 7.35525L18.6696 6.67553L17.9917 5.99578L16.5 4.5Z" fill="black"/>
</svg>
