<svg width="16" xmlns="http://www.w3.org/2000/svg" height="16" xmlns:xlink="http://www.w3.org/1999/xlink" fill="none"><g data-testid="Group"><ellipse cx="7.724" cy="8.426" rx="5.076" ry="4.969" style="fill: rgb(234, 236, 198); fill-opacity: 1;" class="fills" data-testid="Ellipse"/><g data-testid="svg-path"><defs><clipPath id="b" transform="matrix(.31218 0 0 .30666 -2.548 -1.786)"><use xlink:href="#a" overflow="visible"/></clipPath><rect id="a" width="480" height="62"/></defs><path d="M15.371 12.78c-.624-.491-1.249-1.012-1.873-1.502-.25-.215-.281-.246-.094-.522a6.964 6.964 0 0 0 .781-2.024c.25-1.104.218-2.177-.156-3.251-.125-.368-.312-.674-.5-1.011-.062-.092-.093-.184 0-.276.281-.307.562-.614.874-.89.437-.46.906-.889 1.312-1.349.468-.521.343-1.135-.25-1.472-.156-.123-.344-.215-.531-.307-.468-.245-.936-.214-1.374-.03-.374.153-.624.398-.905.705l-1.561 1.472c-.093.061-.125.061-.218.061-.094 0-.188-.03-.312-.03-3.903-.614-6.088 1.625-6.088 1.625-.094.092-.187.092-.281 0-.281-.215-.562-.399-.812-.613-.437-.338-.749-.399-1.217-.123-.312.184-.468.46-.687.705-.125.123-.218.276-.312.399-.25.398-.219.797.125 1.134.281.276.562.552.874.828.125.092.125.184.062.338-.093.184-.187.337-.249.521-.687 1.533-.875 3.097-.313 4.723.094.245.032.367-.124.552-.438.46-.906.888-1.28 1.379-.344.429-.344.951-.032 1.411l.375.46c.343.398.905.398 1.28.061.406-.368.78-.766 1.186-1.134.468-.429.312-.429.906-.123.967.491 1.997.644 3.09.552 1.155-.092 2.185-.491 3.184-1.042.281-.154.313-.154.562.061l.406.368c.406.368.812.735 1.218 1.073.562.46 1.404.491 1.998.092.405-.276.749-.613 1.092-.95.5-.553.5-1.35-.156-1.871Zm-5.557-1.871c-1.467 1.472-4.027 2.024-5.4.582-1.405-1.502-.906-3.433.124-4.814 1.031-1.38 3.622-2.851 5.588-1.349 1.874 1.411 1.156 4.079-.312 5.581Z" clip-path="url(#b)" style="fill: rgb(1, 128, 1);" class="fills"/></g></g></svg>