<svg width="16" height="16" viewBox="0 0 16 16" fill="none" xmlns="http://www.w3.org/2000/svg">
<g clip-path="url(#clip0_234_80)">
<path d="M6.76349 6.7633C6.59155 6.92351 6.45365 7.11671 6.358 7.33137C6.26235 7.54604 6.21092 7.77777 6.20677 8.01274C6.20263 8.24772 6.24585 8.48112 6.33387 8.69902C6.42188 8.91693 6.55289 9.11487 6.71907 9.28105C6.88524 9.44723 7.08319 9.57823 7.30109 9.66625C7.519 9.75426 7.7524 9.79749 7.98737 9.79334C8.22235 9.7892 8.45408 9.73777 8.66874 9.64212C8.88341 9.54647 9.07661 9.40856 9.23682 9.23663M7.25924 3.96329C7.505 3.93267 7.75241 3.91709 8.00007 3.91663C12.0834 3.91663 13.8334 7.99996 13.8334 7.99996C13.5726 8.55828 13.2455 9.08317 12.8592 9.56329M4.85591 4.85578C3.69581 5.64598 2.76751 6.73135 2.16675 7.99995C2.16675 7.99995 3.91675 12.0833 8.00008 12.0833C9.1177 12.0863 10.2114 11.7596 11.1442 11.1441M2.16675 2.16663L13.8334 13.8333" stroke="#09090B" stroke-width="1.2" stroke-linecap="round" stroke-linejoin="round"/>
</g>
<defs>
<clipPath id="clip0_234_80">
<rect width="14" height="14" fill="white" transform="translate(1 1)"/>
</clipPath>
</defs>
</svg>
